 <svg  version="1.0" xmlns="http://www.w3.org/2000/svg"  width="888.000000pt" height="504.000000pt" viewBox="0 0 888.000000 504.000000"  preserveAspectRatio="xMidYMid meet">  <g transform="translate(0.000000,504.000000) scale(0.100000,-0.100000)" fill="#cb6d01" stroke="none"> <path d="M6695 4730 c-77 -11 -199 -55 -250 -90 -105 -72 -162 -168 -201 -338 -48 -210 -42 -386 18 -507 16 -33 58 -94 94 -135 83 -95 97 -121 96 -188 -1 -109 -36 -158 -155 -218 -109 -54 -167 -96 -228 -161 -131 -140 -173 -327 -120 -531 32 -125 61 -171 182 -298 170 -178 194 -244 187 -534 -4 -198 -4 -197 -131 -211 -170 -19 -290 -75 -419 -196 -69 -64 -109 -83 -181 -83 -86 0 -143 45 -193 155 -113 248 -132 281 -187 337 -42 42 -69 61 -106 72 -64 19 -86 13 -141 -39 -66 -62 -82 -68 -215 -73 -109 -4 -125 -2 -162 17 -64 32 -94 92 -104 205 -10 111 7 389 26 425 19 37 43 57 203 167 205 142 200 138 284 220 190 185 286 358 374 672 45 162 98 257 214 385 44 48 80 92 80 98 0 21 -57 67 -96 78 -114 32 -150 35 -217 18 -91 -22 -163 -58 -225 -113 -84 -73 -95 -104 -96 -264 -2 -157 -13 -201 -87 -325 -182 -308 -381 -455 -613 -455 -71 0 -87 4 -133 30 -69 40 -96 79 -101 151 -5 70 8 100 87 197 64 77 81 120 100 249 38 249 -24 465 -173 605 -120 113 -358 198 -519 185 -176 -14 -366 -146 -472 -328 -77 -131 -108 -251 -106 -421 2 -214 41 -307 210 -497 169 -191 180 -231 86 -319 -109 -101 -213 -129 -440 -119 -304 14 -425 107 -426 326 -1 79 2 94 29 147 17 32 58 95 91 138 176 233 184 360 39 651 -93 185 -218 325 -351 392 -71 35 -73 36 -222 40 l-150 5 -94 -47 c-122 -60 -224 -159 -292 -285 -69 -126 -93 -219 -93 -365 0 -106 3 -129 28 -200 15 -44 48 -113 74 -154 91 -148 110 -236 77 -349 -23 -77 -64 -118 -141 -142 -103 -31 -166 -66 -246 -134 -118 -101 -221 -256 -258 -388 -48 -173 -14 -347 94 -480 91 -113 117 -151 147 -210 26 -52 30 -70 27 -114 -6 -71 -48 -124 -204 -259 -189 -163 -229 -220 -222 -316 8 -116 120 -240 276 -307 42 -19 129 -45 192 -60 107 -24 134 -26 395 -27 384 -3 973 11 1072 24 46 6 102 20 125 30 52 22 184 125 254 198 66 68 90 70 149 9 99 -100 172 -145 263 -165 84 -18 433 -42 597 -42 126 0 166 4 253 26 57 14 127 36 156 50 29 14 56 25 60 25 22 0 114 75 206 170 83 85 119 113 171 138 112 53 159 41 232 -61 106 -148 202 -216 289 -204 50 7 98 52 98 92 0 43 26 91 66 121 35 27 44 29 128 29 67 0 110 -6 163 -23 78 -25 77 -24 251 -158 141 -108 234 -155 362 -186 89 -21 117 -22 450 -22 l355 0 125 30 c152 38 276 96 432 200 153 102 229 178 280 279 35 68 42 92 46 158 4 72 2 82 -27 142 -44 89 -82 131 -227 253 -179 148 -265 239 -315 328 -37 67 -42 85 -46 158 -7 104 1 129 82 250 47 72 72 123 97 199 31 96 33 111 33 242 0 121 -3 149 -24 210 -56 165 -95 214 -246 312 -134 87 -167 129 -180 235 -12 92 -2 113 100 218 112 116 127 137 162 231 25 68 27 84 25 199 -4 207 -55 336 -181 452 -124 115 -289 167 -551 173 -91 2 -192 0 -225 -5z m-3888 -2771 c42 -15 92 -69 98 -103 3 -17 7 -148 8 -291 l3 -260 -30 -31 c-89 -89 -263 -16 -342 143 -24 49 -28 71 -29 138 0 67 5 94 33 164 39 102 97 185 153 223 46 31 63 33 106 17z m501 -259 c72 -46 143 -135 162 -204 26 -93 -8 -194 -92 -278 -31 -31 -45 -38 -77 -38 -34 0 -45 6 -76 42 -19 23 -48 67 -63 98 -25 51 -27 64 -26 175 1 166 28 245 83 245 16 0 55 -17 89 -40z"/> </g> </svg> 